# This file uses centimeters as units for non-parametric coordinates.

mtllib AudienceMember.mtl
g default
v 0.707107 2.016566 -0.707107
v 0.000000 2.016566 -1.000000
v -0.707107 2.016566 -0.707107
v -1.000000 2.016566 0.000000
v -0.707107 2.016566 0.707107
v 0.000000 2.016566 1.000000
v 0.707107 2.016566 0.707107
v 1.000000 2.016566 0.000000
v 0.653281 2.399249 -0.653281
v 0.000000 2.399249 -0.923879
v -0.653281 2.399249 -0.653281
v -0.923879 2.399249 0.000000
v -0.653281 2.399249 0.653281
v 0.000000 2.399249 0.923879
v 0.653281 2.399249 0.653281
v 0.923880 2.399249 0.000000
v 0.500000 2.723672 -0.500000
v 0.000000 2.723672 -0.707107
v -0.500000 2.723672 -0.500000
v -0.707107 2.723672 0.000000
v -0.500000 2.723672 0.500000
v 0.000000 2.723672 0.707107
v 0.500000 2.723672 0.500000
v 0.707107 2.723672 0.000000
v 0.270598 2.940445 -0.270598
v 0.000000 2.940445 -0.382683
v -0.270598 2.940445 -0.270598
v -0.382683 2.940445 0.000000
v -0.270598 2.940445 0.270598
v 0.000000 2.940445 0.382683
v 0.270598 2.940445 0.270598
v 0.382683 2.940445 0.000000
v 0.000000 3.016566 0.000000
v 0.707107 0.131202 -0.707107
v 0.000000 0.131202 -1.000000
v -0.707107 0.131202 -0.707107
v -1.000000 0.131202 0.000000
v -0.707107 0.131202 0.707107
v 0.000000 0.131202 1.000000
v 0.707107 0.131202 0.707107
v 1.000000 0.131202 0.000000
v 0.237721 3.110416 -0.237721
v 0.000000 3.110416 -0.336188
v -0.237721 3.110416 -0.237721
v -0.336188 3.110416 0.000000
v -0.237721 3.110416 0.237721
v 0.000000 3.110416 0.336189
v 0.237721 3.110416 0.237721
v 0.336189 3.110416 0.000000
v 0.439251 3.300851 -0.439251
v 0.000000 3.300851 -0.621195
v -0.439251 3.300851 -0.439251
v -0.621195 3.300851 0.000000
v -0.439251 3.300851 0.439251
v 0.000000 3.300851 0.621195
v 0.439251 3.300851 0.439251
v 0.621195 3.300851 0.000000
v 0.573910 3.585858 -0.573910
v 0.000000 3.585858 -0.811631
v -0.573910 3.585858 -0.573910
v -0.811631 3.585858 0.000000
v -0.573910 3.585858 0.573910
v 0.000000 3.585858 0.811631
v 0.573910 3.585858 0.573910
v 0.811631 3.585858 0.000000
v 0.621195 3.922047 -0.621195
v 0.000000 3.922047 -0.878503
v -0.621195 3.922047 -0.621195
v -0.878503 3.922047 0.000000
v -0.621195 3.922047 0.621195
v 0.000000 3.922047 0.878503
v 0.621195 3.922047 0.621195
v 0.878503 3.922047 0.000000
v 0.573910 4.258235 -0.573910
v 0.000000 4.258235 -0.811631
v -0.573910 4.258235 -0.573910
v -0.811631 4.258235 0.000000
v -0.573910 4.258235 0.573910
v 0.000000 4.258235 0.811631
v 0.573910 4.258235 0.573910
v 0.811631 4.258235 0.000000
v 0.439251 4.543242 -0.439251
v 0.000000 4.543242 -0.621195
v -0.439251 4.543242 -0.439251
v -0.621195 4.543242 0.000000
v -0.439251 4.543242 0.439251
v 0.000000 4.543242 0.621195
v 0.439251 4.543242 0.439251
v 0.621195 4.543242 0.000000
v 0.237721 4.733677 -0.237721
v 0.000000 4.733677 -0.336188
v -0.237721 4.733677 -0.237721
v -0.336188 4.733677 0.000000
v -0.237721 4.733677 0.237721
v 0.000000 4.733677 0.336189
v 0.237721 4.733677 0.237721
v 0.336189 4.733677 0.000000
v 0.000000 3.043544 0.000000
v 0.000000 4.800550 0.000000
vt 0.000000 0.500000
vt 0.125000 0.500000
vt 0.250000 0.500000
vt 0.375000 0.500000
vt 0.500000 0.500000
vt 0.625000 0.500000
vt 0.750000 0.500000
vt 0.875000 0.500000
vt 1.000000 0.500000
vt 0.000000 0.625000
vt 0.125000 0.625000
vt 0.250000 0.625000
vt 0.375000 0.625000
vt 0.500000 0.625000
vt 0.625000 0.625000
vt 0.750000 0.625000
vt 0.875000 0.625000
vt 1.000000 0.625000
vt 0.000000 0.750000
vt 0.125000 0.750000
vt 0.250000 0.750000
vt 0.375000 0.750000
vt 0.500000 0.750000
vt 0.625000 0.750000
vt 0.750000 0.750000
vt 0.875000 0.750000
vt 1.000000 0.750000
vt 0.000000 0.875000
vt 0.125000 0.875000
vt 0.250000 0.875000
vt 0.375000 0.875000
vt 0.500000 0.875000
vt 0.625000 0.875000
vt 0.750000 0.875000
vt 0.875000 0.875000
vt 1.000000 0.875000
vt 0.062500 1.000000
vt 0.187500 1.000000
vt 0.312500 1.000000
vt 0.437500 1.000000
vt 0.562500 1.000000
vt 0.687500 1.000000
vt 0.812500 1.000000
vt 0.937500 1.000000
vt 0.000000 0.000000
vt 1.000000 0.000000
vt 1.000000 1.000000
vt 0.000000 1.000000
vt 0.000000 0.000000
vt 1.000000 0.000000
vt 1.000000 1.000000
vt 0.000000 1.000000
vt 0.000000 0.000000
vt 1.000000 0.000000
vt 1.000000 1.000000
vt 0.000000 1.000000
vt 0.000000 0.000000
vt 1.000000 0.000000
vt 1.000000 1.000000
vt 0.000000 1.000000
vt 0.000000 0.000000
vt 1.000000 0.000000
vt 1.000000 1.000000
vt 0.000000 1.000000
vt 0.000000 0.000000
vt 1.000000 0.000000
vt 1.000000 1.000000
vt 0.000000 1.000000
vt 0.000000 0.000000
vt 1.000000 0.000000
vt 1.000000 1.000000
vt 0.000000 1.000000
vt 0.000000 0.000000
vt 1.000000 0.000000
vt 1.000000 1.000000
vt 0.000000 1.000000
vt 0.000000 0.125000
vt 0.125000 0.125000
vt 0.125000 0.250000
vt 0.000000 0.250000
vt 0.250000 0.125000
vt 0.250000 0.250000
vt 0.375000 0.125000
vt 0.375000 0.250000
vt 0.500000 0.125000
vt 0.500000 0.250000
vt 0.625000 0.125000
vt 0.625000 0.250000
vt 0.750000 0.125000
vt 0.750000 0.250000
vt 0.875000 0.125000
vt 0.875000 0.250000
vt 1.000000 0.125000
vt 1.000000 0.250000
vt 0.125000 0.375000
vt 0.000000 0.375000
vt 0.250000 0.375000
vt 0.375000 0.375000
vt 0.500000 0.375000
vt 0.625000 0.375000
vt 0.750000 0.375000
vt 0.875000 0.375000
vt 1.000000 0.375000
vt 0.125000 0.500000
vt 0.000000 0.500000
vt 0.250000 0.500000
vt 0.375000 0.500000
vt 0.500000 0.500000
vt 0.625000 0.500000
vt 0.750000 0.500000
vt 0.875000 0.500000
vt 1.000000 0.500000
vt 0.125000 0.625000
vt 0.000000 0.625000
vt 0.250000 0.625000
vt 0.375000 0.625000
vt 0.500000 0.625000
vt 0.625000 0.625000
vt 0.750000 0.625000
vt 0.875000 0.625000
vt 1.000000 0.625000
vt 0.125000 0.750000
vt 0.000000 0.750000
vt 0.250000 0.750000
vt 0.375000 0.750000
vt 0.500000 0.750000
vt 0.625000 0.750000
vt 0.750000 0.750000
vt 0.875000 0.750000
vt 1.000000 0.750000
vt 0.125000 0.875000
vt 0.000000 0.875000
vt 0.250000 0.875000
vt 0.375000 0.875000
vt 0.500000 0.875000
vt 0.625000 0.875000
vt 0.750000 0.875000
vt 0.875000 0.875000
vt 1.000000 0.875000
vt 0.062500 0.000000
vt 0.187500 0.000000
vt 0.312500 0.000000
vt 0.437500 0.000000
vt 0.562500 0.000000
vt 0.687500 0.000000
vt 0.812500 0.000000
vt 0.937500 0.000000
vt 0.062500 1.000000
vt 0.187500 1.000000
vt 0.312500 1.000000
vt 0.437500 1.000000
vt 0.562500 1.000000
vt 0.687500 1.000000
vt 0.812500 1.000000
vt 0.937500 1.000000
vn 0.706763 0.031175 -0.706763
vn 0.000000 0.031175 -0.999514
vn -0.000000 0.349894 -0.936789
vn 0.662410 0.349894 -0.662410
vn -0.706763 0.031175 -0.706763
vn -0.662410 0.349894 -0.662410
vn -0.999514 0.031175 0.000000
vn -0.936789 0.349894 0.000000
vn -0.706763 0.031175 0.706763
vn -0.662410 0.349894 0.662410
vn -0.000000 0.031175 0.999514
vn -0.000000 0.349894 0.936789
vn 0.706763 0.031175 0.706763
vn 0.662410 0.349894 0.662410
vn 0.999514 0.031175 -0.000000
vn 0.936789 0.349894 -0.000000
vn -0.000000 0.654266 -0.756265
vn 0.534760 0.654266 -0.534760
vn -0.534760 0.654266 -0.534760
vn -0.756265 0.654266 -0.000000
vn -0.534760 0.654266 0.534760
vn -0.000000 0.654266 0.756265
vn 0.534760 0.654266 0.534760
vn 0.756265 0.654266 -0.000000
vn 0.000000 0.868197 -0.496220
vn 0.350880 0.868197 -0.350881
vn -0.350881 0.868197 -0.350881
vn -0.496220 0.868197 -0.000000
vn -0.350881 0.868197 0.350880
vn -0.000000 0.868197 0.496220
vn 0.350881 0.868197 0.350881
vn 0.496220 0.868197 -0.000000
vn 0.000000 1.000000 -0.000000
vn 0.707107 0.000000 -0.707107
vn 0.000000 0.000000 -1.000000
vn -0.707107 0.000000 -0.707107
vn -1.000000 0.000000 0.000000
vn -0.707107 0.000000 0.707107
vn -0.000000 0.000000 1.000000
vn 0.707107 0.000000 0.707107
vn 1.000000 0.000000 -0.000000
vn 0.350881 -0.868197 -0.350881
vn 0.000000 -0.868197 -0.496220
vn 0.000000 -0.654266 -0.756265
vn 0.534760 -0.654266 -0.534760
vn -0.350881 -0.868197 -0.350881
vn -0.534760 -0.654266 -0.534760
vn -0.496220 -0.868197 -0.000000
vn -0.756265 -0.654266 -0.000000
vn -0.350881 -0.868197 0.350881
vn -0.534760 -0.654266 0.534760
vn 0.000000 -0.868197 0.496220
vn -0.000000 -0.654266 0.756265
vn 0.350881 -0.868197 0.350881
vn 0.534760 -0.654266 0.534760
vn 0.496221 -0.868197 -0.000000
vn 0.756265 -0.654266 -0.000000
vn 0.000000 -0.349894 -0.936789
vn 0.662410 -0.349894 -0.662410
vn -0.662410 -0.349894 -0.662410
vn -0.936789 -0.349894 0.000000
vn -0.662410 -0.349894 0.662410
vn -0.000000 -0.349894 0.936789
vn 0.662410 -0.349894 0.662410
vn 0.936789 -0.349894 -0.000000
vn 0.000000 0.000000 -1.000000
vn 0.707107 0.000000 -0.707107
vn -0.707107 0.000000 -0.707107
vn -1.000000 0.000000 0.000000
vn -0.707107 0.000000 0.707107
vn -0.000000 0.000000 1.000000
vn 0.707107 0.000000 0.707107
vn 1.000000 0.000000 -0.000000
vn 0.000000 0.349894 -0.936789
vn 0.662410 0.349894 -0.662410
vn -0.662410 0.349894 -0.662410
vn -0.936789 0.349894 -0.000000
vn -0.662410 0.349894 0.662410
vn -0.000000 0.349894 0.936789
vn 0.662410 0.349894 0.662410
vn 0.936789 0.349894 0.000000
vn -0.000000 0.654266 -0.756265
vn 0.534760 0.654266 -0.534760
vn -0.534760 0.654266 -0.534760
vn -0.756265 0.654266 -0.000000
vn -0.534760 0.654266 0.534760
vn -0.000000 0.654266 0.756265
vn 0.534760 0.654266 0.534760
vn 0.756265 0.654266 0.000000
vn 0.000000 0.868197 -0.496220
vn 0.350881 0.868197 -0.350881
vn -0.350881 0.868197 -0.350881
vn -0.496220 0.868197 0.000000
vn -0.350881 0.868197 0.350881
vn -0.000000 0.868197 0.496220
vn 0.350881 0.868197 0.350881
vn 0.496220 0.868197 -0.000000
vn -0.000000 -1.000000 0.000000
vn 0.000000 1.000000 0.000000
s 1
g pSphere3
usemtl initialShadingGroup
f 1/1/1 2/2/2 10/11/3 9/10/4
f 2/2/2 3/3/5 11/12/6 10/11/3
f 3/3/5 4/4/7 12/13/8 11/12/6
f 4/4/7 5/5/9 13/14/10 12/13/8
f 5/5/9 6/6/11 14/15/12 13/14/10
f 6/6/11 7/7/13 15/16/14 14/15/12
f 7/7/13 8/8/15 16/17/16 15/16/14
f 8/8/15 1/9/1 9/18/4 16/17/16
f 9/10/4 10/11/3 18/20/17 17/19/18
f 10/11/3 11/12/6 19/21/19 18/20/17
f 11/12/6 12/13/8 20/22/20 19/21/19
f 12/13/8 13/14/10 21/23/21 20/22/20
f 13/14/10 14/15/12 22/24/22 21/23/21
f 14/15/12 15/16/14 23/25/23 22/24/22
f 15/16/14 16/17/16 24/26/24 23/25/23
f 16/17/16 9/18/4 17/27/18 24/26/24
f 17/19/18 18/20/17 26/29/25 25/28/26
f 18/20/17 19/21/19 27/30/27 26/29/25
f 19/21/19 20/22/20 28/31/28 27/30/27
f 20/22/20 21/23/21 29/32/29 28/31/28
f 21/23/21 22/24/22 30/33/30 29/32/29
f 22/24/22 23/25/23 31/34/31 30/33/30
f 23/25/23 24/26/24 32/35/32 31/34/31
f 24/26/24 17/27/18 25/36/26 32/35/32
f 25/28/26 26/29/25 33/37/33
f 26/29/25 27/30/27 33/38/33
f 27/30/27 28/31/28 33/39/33
f 28/31/28 29/32/29 33/40/33
f 29/32/29 30/33/30 33/41/33
f 30/33/30 31/34/31 33/42/33
f 31/34/31 32/35/32 33/43/33
f 32/35/32 25/36/26 33/44/33
f 2/45/2 1/46/1 34/47/34 35/48/35
f 3/49/5 2/50/2 35/51/35 36/52/36
f 4/53/7 3/54/5 36/55/36 37/56/37
f 5/57/9 4/58/7 37/59/37 38/60/38
f 6/61/11 5/62/9 38/63/38 39/64/39
f 7/65/13 6/66/11 39/67/39 40/68/40
f 8/69/15 7/70/13 40/71/40 41/72/41
f 1/73/1 8/74/15 41/75/41 34/76/34
s 2
f 42/77/42 43/78/43 51/79/44 50/80/45
f 43/78/43 44/81/46 52/82/47 51/79/44
f 44/81/46 45/83/48 53/84/49 52/82/47
f 45/83/48 46/85/50 54/86/51 53/84/49
f 46/85/50 47/87/52 55/88/53 54/86/51
f 47/87/52 48/89/54 56/90/55 55/88/53
f 48/89/54 49/91/56 57/92/57 56/90/55
f 49/91/56 42/93/42 50/94/45 57/92/57
f 50/80/45 51/79/44 59/95/58 58/96/59
f 51/79/44 52/82/47 60/97/60 59/95/58
f 52/82/47 53/84/49 61/98/61 60/97/60
f 53/84/49 54/86/51 62/99/62 61/98/61
f 54/86/51 55/88/53 63/100/63 62/99/62
f 55/88/53 56/90/55 64/101/64 63/100/63
f 56/90/55 57/92/57 65/102/65 64/101/64
f 57/92/57 50/94/45 58/103/59 65/102/65
f 58/96/59 59/95/58 67/104/66 66/105/67
f 59/95/58 60/97/60 68/106/68 67/104/66
f 60/97/60 61/98/61 69/107/69 68/106/68
f 61/98/61 62/99/62 70/108/70 69/107/69
f 62/99/62 63/100/63 71/109/71 70/108/70
f 63/100/63 64/101/64 72/110/72 71/109/71
f 64/101/64 65/102/65 73/111/73 72/110/72
f 65/102/65 58/103/59 66/112/67 73/111/73
f 66/105/67 67/104/66 75/113/74 74/114/75
f 67/104/66 68/106/68 76/115/76 75/113/74
f 68/106/68 69/107/69 77/116/77 76/115/76
f 69/107/69 70/108/70 78/117/78 77/116/77
f 70/108/70 71/109/71 79/118/79 78/117/78
f 71/109/71 72/110/72 80/119/80 79/118/79
f 72/110/72 73/111/73 81/120/81 80/119/80
f 73/111/73 66/112/67 74/121/75 81/120/81
f 74/114/75 75/113/74 83/122/82 82/123/83
f 75/113/74 76/115/76 84/124/84 83/122/82
f 76/115/76 77/116/77 85/125/85 84/124/84
f 77/116/77 78/117/78 86/126/86 85/125/85
f 78/117/78 79/118/79 87/127/87 86/126/86
f 79/118/79 80/119/80 88/128/88 87/127/87
f 80/119/80 81/120/81 89/129/89 88/128/88
f 81/120/81 74/121/75 82/130/83 89/129/89
f 82/123/83 83/122/82 91/131/90 90/132/91
f 83/122/82 84/124/84 92/133/92 91/131/90
f 84/124/84 85/125/85 93/134/93 92/133/92
f 85/125/85 86/126/86 94/135/94 93/134/93
f 86/126/86 87/127/87 95/136/95 94/135/94
f 87/127/87 88/128/88 96/137/96 95/136/95
f 88/128/88 89/129/89 97/138/97 96/137/96
f 89/129/89 82/130/83 90/139/91 97/138/97
f 43/78/43 42/77/42 98/140/98
f 44/81/46 43/78/43 98/141/98
f 45/83/48 44/81/46 98/142/98
f 46/85/50 45/83/48 98/143/98
f 47/87/52 46/85/50 98/144/98
f 48/89/54 47/87/52 98/145/98
f 49/91/56 48/89/54 98/146/98
f 42/93/42 49/91/56 98/147/98
f 90/132/91 91/131/90 99/148/99
f 91/131/90 92/133/92 99/149/99
f 92/133/92 93/134/93 99/150/99
f 93/134/93 94/135/94 99/151/99
f 94/135/94 95/136/95 99/152/99
f 95/136/95 96/137/96 99/153/99
f 96/137/96 97/138/97 99/154/99
f 97/138/97 90/139/91 99/155/99
